<svg width="26" height="24" viewBox="0 0 26 24" fill="none" xmlns="http://www.w3.org/2000/svg">
<path d="M23.6557 0H1.38783C1.0206 0.00261668 0.669181 0.143581 0.409502 0.39244C0.149824 0.641298 0.00273045 0.978071 0 1.33V22.67C0.00273045 23.0219 0.149824 23.3587 0.409502 23.6076C0.669181 23.8564 1.0206 23.9974 1.38783 24H13.3774V14.72H10.1217V11.09H13.3774V8.42C13.3774 5.32 15.3496 3.63 18.2504 3.63C19.2209 3.63 20.1913 3.63 21.1617 3.77V7H19.1687C17.593 7 17.2904 7.72 17.2904 8.77V11.08H21.047L20.5565 14.71H17.2904V24H23.6557C24.0229 23.9974 24.3743 23.8564 24.634 23.6076C24.8937 23.3587 25.0407 23.0219 25.0435 22.67V1.33C25.0407 0.978071 24.8937 0.641298 24.634 0.39244C24.3743 0.143581 24.0229 0.00261668 23.6557 0V0Z" fill="white"/>
</svg>
