<svg width="25" height="24" viewBox="0 0 25 24" fill="none" xmlns="http://www.w3.org/2000/svg">
<path d="M18.4927 7.03405C19.2917 7.03405 19.9395 6.38934 19.9395 5.59405C19.9395 4.79876 19.2917 4.15405 18.4927 4.15405C17.6937 4.15405 17.0459 4.79876 17.0459 5.59405C17.0459 6.38934 17.6937 7.03405 18.4927 7.03405Z" fill="white"/>
<path d="M12.0563 5.83801C10.8318 5.83801 9.63485 6.19941 8.61673 6.8765C7.59862 7.55359 6.80509 8.51596 6.3365 9.64192C5.86792 10.7679 5.74531 12.0068 5.9842 13.2022C6.22308 14.3975 6.81272 15.4954 7.67856 16.3572C8.54439 17.219 9.64754 17.8058 10.8485 18.0436C12.0494 18.2814 13.2943 18.1593 14.4255 17.693C15.5568 17.2266 16.5237 16.4368 17.204 15.4234C17.8843 14.4101 18.2474 13.2187 18.2474 12C18.2474 10.3657 17.5951 8.79842 16.434 7.64282C15.273 6.48722 13.6983 5.83801 12.0563 5.83801ZM12.0563 16C11.2614 16 10.4844 15.7654 9.82354 15.3259C9.16264 14.8864 8.64753 14.2616 8.34335 13.5307C8.03917 12.7998 7.95959 11.9956 8.11466 11.2197C8.26973 10.4437 8.65249 9.731 9.21453 9.17159C9.77658 8.61218 10.4927 8.23121 11.2723 8.07687C12.0518 7.92253 12.8599 8.00174 13.5943 8.30449C14.3286 8.60724 14.9563 9.11994 15.3979 9.77773C15.8395 10.4355 16.0752 11.2089 16.0752 12C16.0752 13.0609 15.6518 14.0783 14.8981 14.8284C14.1444 15.5786 13.1222 16 12.0563 16Z" fill="white"/>
<path d="M12.0566 2.162C15.2757 2.162 15.6575 2.174 16.9285 2.232C17.6929 2.24103 18.4501 2.38073 19.167 2.645C19.6871 2.84469 20.1594 3.15055 20.5536 3.54288C20.9478 3.93521 21.2551 4.40534 21.4557 4.923C21.7212 5.63653 21.8616 6.39016 21.8707 7.151C21.929 8.416 21.941 8.796 21.941 12.001C21.941 15.206 21.929 15.584 21.8707 16.849C21.8616 17.6098 21.7212 18.3635 21.4557 19.077C21.2551 19.5947 20.9478 20.0648 20.5536 20.4571C20.1594 20.8495 19.6871 21.1553 19.167 21.355C18.4501 21.6193 17.6929 21.759 16.9285 21.768C15.6575 21.826 15.2757 21.838 12.0566 21.838C8.83749 21.838 8.4557 21.826 7.18473 21.768C6.4203 21.759 5.66312 21.6193 4.94622 21.355C4.42612 21.1553 3.95378 20.8495 3.55959 20.4571C3.16541 20.0648 2.85811 19.5947 2.65748 19.077C2.39196 18.3635 2.2516 17.6098 2.24253 16.849C2.18425 15.584 2.1722 15.204 2.1722 12C2.1722 8.796 2.18425 8.416 2.24253 7.151C2.2516 6.39016 2.39196 5.63653 2.65748 4.923C2.85811 4.40534 3.16541 3.93521 3.55959 3.54288C3.95378 3.15055 4.42612 2.84469 4.94622 2.645C5.66312 2.38073 6.4203 2.24103 7.18473 2.232C8.4557 2.174 8.83749 2.162 12.0566 2.162M12.0566 0C8.78223 0 8.3713 0.014 7.08526 0.072C6.08534 0.0920961 5.09608 0.280769 4.15953 0.63C3.35849 0.938297 2.63101 1.40978 2.02372 2.01422C1.41643 2.61866 0.942723 3.34272 0.632972 4.14C0.281982 5.07247 0.0924173 6.05744 0.0723397 7.053C0.0140661 8.333 0 8.74 0 12C0 15.26 0.0140661 15.668 0.0723397 16.948C0.0925305 17.9432 0.282094 18.9278 0.632972 19.86C0.942723 20.6573 1.41643 21.3813 2.02372 21.9858C2.63101 22.5902 3.35849 23.0617 4.15953 23.37C5.0964 23.7193 6.08601 23.908 7.08627 23.928C8.37231 23.986 8.78223 24 12.0566 24C15.331 24 15.7419 23.986 17.0279 23.928C18.0282 23.908 19.0178 23.7193 19.9547 23.37C20.7557 23.0617 21.4832 22.5902 22.0905 21.9858C22.6978 21.3813 23.1715 20.6573 23.4812 19.86C23.8319 18.9275 24.0211 17.9425 24.0409 16.947C24.0991 15.667 24.1132 15.26 24.1132 12C24.1132 8.74 24.0991 8.332 24.0409 7.052C24.0207 6.05677 23.8311 5.07216 23.4802 4.14C23.1705 3.34272 22.6968 2.61866 22.0895 2.01422C21.4822 1.40978 20.7547 0.938297 19.9537 0.63C19.0167 0.281 18.0271 0.0926631 17.0269 0.073C15.7409 0.013 15.332 0 12.0566 0Z" fill="white"/>
</svg>
