<svg width="26" height="24" viewBox="0 0 26 24" fill="none" xmlns="http://www.w3.org/2000/svg">
<path d="M23.1652 0H1.87826C0.834783 0 0 0.803347 0 1.70711V22.2929C0 23.1967 0.834783 24 1.87826 24H23.1652C24.2087 24 25.0435 23.1967 25.0435 22.2929V1.70711C25.0435 0.803347 24.2087 0 23.1652 0ZM7.4087 20.4854H3.75652V9.03766H7.4087V20.4854ZM5.63478 7.43096C4.48696 7.43096 3.44348 6.5272 3.44348 5.32218C3.44348 4.11716 4.38261 3.21339 5.63478 3.21339C6.78261 3.21339 7.82609 4.11716 7.82609 5.32218C7.82609 6.5272 6.78261 7.43096 5.63478 7.43096ZM21.3913 20.3849H17.7391V14.7615C17.7391 13.4561 17.7391 11.6485 15.7565 11.6485C13.7739 11.6485 13.5652 13.1548 13.5652 14.5607V20.2845H9.91304V9.03766H13.3565V10.5439H13.4609C13.9826 9.64017 15.2348 8.63598 17.0087 8.63598C20.7652 8.63598 21.4957 11.046 21.4957 14.159V20.3849H21.3913Z" fill="white"/>
</svg>
