<svg width="25" height="24" viewBox="0 0 25 24" fill="none" xmlns="http://www.w3.org/2000/svg">
<path d="M12.4019 0C9.50697 0.0189457 6.7088 1.00394 4.48611 2.7865C2.26342 4.56905 0.754331 7.03838 0.216993 9.77207C-0.320344 12.5058 0.147464 15.3339 1.54039 17.7728C2.93332 20.2116 5.16481 22.1096 7.85312 23.142C7.67244 22.0058 7.67244 20.8498 7.85312 19.7135L9.3248 13.7138C9.0919 13.1704 8.97657 12.5871 8.98586 11.9995C8.98586 10.3367 9.99374 9.08537 11.2424 9.08537C11.4686 9.0821 11.6929 9.12585 11.8999 9.21364C12.1069 9.30142 12.2916 9.43116 12.4416 9.59397C12.5915 9.75677 12.7031 9.9488 12.7686 10.1569C12.8341 10.365 12.852 10.5842 12.8211 10.7996C12.8211 11.8281 12.1433 13.3709 11.7865 14.7937C11.7097 15.0591 11.7006 15.3383 11.7599 15.6077C11.8192 15.8772 11.9452 16.1289 12.1272 16.3417C12.3092 16.5544 12.5419 16.7219 12.8055 16.8299C13.0691 16.9379 13.356 16.9833 13.6417 16.9622C15.8537 16.9622 17.5662 14.708 17.5662 11.4681C17.5884 10.8098 17.4676 10.1542 17.2115 9.5432C16.9553 8.93221 16.5695 8.37923 16.0785 7.91954C15.5876 7.45985 15.0023 7.10355 14.3601 6.87336C13.7178 6.64316 13.0327 6.54414 12.3484 6.58261C11.6178 6.55245 10.8885 6.66507 10.2045 6.91364C9.52055 7.16221 8.89617 7.54157 8.36919 8.02875C7.84221 8.51593 7.42358 9.10081 7.13863 9.74797C6.85369 10.3951 6.70837 11.0911 6.71145 11.7938C6.70154 12.7728 7.0137 13.7297 7.60338 14.528C7.64626 14.5738 7.6768 14.629 7.69235 14.6888C7.7079 14.7485 7.70798 14.8111 7.69257 14.8709C7.59446 15.248 7.3804 16.0708 7.34472 16.2337C7.30904 16.3965 7.15742 16.4994 6.92552 16.3965C5.36465 15.6937 4.39245 13.5081 4.39245 11.7424C4.39245 7.96255 7.25553 4.48269 12.6428 4.48269C16.9686 4.48269 20.3401 7.44829 20.3401 11.4167C20.3401 15.548 17.6643 18.8736 13.8558 18.8736C13.2974 18.8922 12.7431 18.7766 12.2431 18.5371C11.7431 18.2976 11.3133 17.9419 10.9927 17.5022L10.2167 20.3564C9.84474 21.4656 9.32297 22.5231 8.66477 23.502C9.87759 23.8464 11.1373 24.014 12.4019 23.9991C15.7137 23.9991 18.8898 22.7349 21.2315 20.4845C23.5733 18.2341 24.8889 15.182 24.8889 11.9995C24.8889 8.81707 23.5733 5.76494 21.2315 3.51458C18.8898 1.26423 15.7137 0 12.4019 0" fill="white"/>
</svg>
