<svg width="25" height="24" viewBox="0 0 25 24" fill="none" xmlns="http://www.w3.org/2000/svg">
<path d="M24.0904 5.61708C24.0892 5.18477 24.0495 4.75341 23.9719 4.32806C23.8852 3.80809 23.7202 3.30409 23.4826 2.83304C23.2219 2.33806 22.8827 1.88826 22.4779 1.50102C21.867 0.90652 21.1127 0.478458 20.2875 0.258004C19.5294 0.0751392 18.7504 -0.00757317 17.9706 0.0119998L17.9666 0H6.14293V0.0119998C5.69911 0.00842059 5.25541 0.0281148 4.81367 0.0710006C4.3304 0.122436 3.85471 0.229142 3.39599 0.389006C2.63973 0.672457 1.96129 1.12942 1.41575 1.72279C0.870205 2.31616 0.47294 3.02921 0.256207 3.80405C0.073727 4.55203 -0.00937036 5.3206 0.00904241 6.09009L0 17.8963C0.00769514 18.4308 0.0442533 18.9646 0.109516 19.4953C0.190052 20.0552 0.356428 20.5996 0.602839 21.1093C0.950747 21.7901 1.44589 22.3857 2.05267 22.8533C2.48623 23.1972 2.97737 23.4623 3.5035 23.6363C4.27589 23.8736 5.08041 23.991 5.88873 23.9843C6.39512 23.9873 6.9005 24.0003 7.40588 23.9983C11.0832 23.9823 14.7595 24.0243 18.4358 23.9753C18.9215 23.9648 19.4055 23.9136 19.8826 23.8223C20.7842 23.6646 21.6234 23.2585 22.305 22.6503C23.1076 21.9568 23.6681 21.0274 23.9056 19.9963C24.0517 19.3059 24.1214 18.6017 24.1136 17.8963V17.7553C24.1136 17.7003 24.0935 5.77508 24.0904 5.61708V5.61708ZM20.8622 16.7222C20.7075 17.0822 19.9278 17.3792 18.6076 17.5823C18.484 17.6023 18.4318 17.8013 18.3605 18.1273C18.3303 18.2623 18.3002 18.3943 18.26 18.5323C18.2479 18.5909 18.2147 18.6432 18.1665 18.6791C18.1184 18.715 18.0587 18.7322 17.9988 18.7273H17.9787C17.8522 18.7228 17.7265 18.7071 17.6029 18.6803C17.2771 18.6122 16.9452 18.577 16.6122 18.5753C16.3732 18.5759 16.1346 18.596 15.8989 18.6353C15.4008 18.7607 14.9376 18.9962 14.5435 19.3243C13.8776 19.8901 13.041 20.2185 12.1663 20.2573C12.1161 20.2573 12.0678 20.2553 12.0317 20.2533C12.0023 20.2558 11.9728 20.2572 11.9432 20.2573C11.0689 20.219 10.2325 19.891 9.56705 19.3253C9.17264 18.9969 8.70906 18.7611 8.21067 18.6353C7.97492 18.5959 7.73634 18.5759 7.49731 18.5753C7.16448 18.5786 6.83287 18.6158 6.50765 18.6863C6.38419 18.715 6.25846 18.7331 6.13188 18.7403C6.06815 18.7474 6.00406 18.7306 5.95206 18.6933C5.90006 18.6559 5.86387 18.6007 5.85055 18.5383C5.81148 18.4037 5.77796 18.2676 5.75008 18.1303C5.67774 17.8023 5.62549 17.6023 5.50191 17.5833C4.1827 17.3802 3.40202 17.0822 3.24729 16.7202C3.23159 16.6841 3.22241 16.6455 3.22016 16.6062C3.217 16.5543 3.23334 16.503 3.26601 16.4623C3.29869 16.4217 3.34537 16.3946 3.397 16.3862C4.48849 16.1896 5.47206 15.6077 6.16704 14.7472C6.54953 14.307 6.8675 13.8151 7.11149 13.2862L7.11551 13.2762C7.18747 13.159 7.23285 13.0276 7.24847 12.8911C7.26409 12.7547 7.24957 12.6165 7.20593 12.4862C7.03613 12.0862 6.47248 11.9092 6.10073 11.7912C6.01606 11.766 5.93228 11.738 5.84955 11.7072C5.51999 11.5772 4.97744 11.3032 5.04978 10.9242C5.10515 10.7817 5.20387 10.66 5.33213 10.5761C5.46039 10.4922 5.61178 10.4502 5.76515 10.4561C5.83979 10.4544 5.91389 10.4691 5.98217 10.4992C6.26039 10.6409 6.56612 10.7211 6.87839 10.7342C7.06381 10.7471 7.24747 10.6912 7.39382 10.5772C7.38444 10.4018 7.37372 10.2268 7.36167 10.0521C7.19195 8.86825 7.2644 7.66242 7.57467 6.50709C7.93963 5.67792 8.54193 4.97413 9.30636 4.48363C10.0708 3.99312 10.9635 3.73762 11.8729 3.74905L12.2286 3.74605C13.1392 3.73445 14.0331 3.99002 14.7988 4.48086C15.5644 4.97169 16.1679 5.67607 16.5339 6.50609C16.8443 7.66242 16.9167 8.86925 16.7469 10.0541L16.7438 10.1111L16.7157 10.5782C16.8487 10.683 17.0143 10.7382 17.1839 10.7342C17.478 10.7121 17.7648 10.6326 18.0279 10.5002C18.115 10.4624 18.2092 10.4437 18.3042 10.4451C18.4119 10.4448 18.5187 10.4652 18.6187 10.5051L18.6237 10.5072C18.7367 10.5342 18.8391 10.5941 18.9178 10.6792C18.9966 10.7643 19.0481 10.8708 19.0658 10.9852C19.0698 11.1692 18.9332 11.4432 18.259 11.7082C18.1765 11.7389 18.0931 11.7669 18.0088 11.7922C17.6361 11.9102 17.0734 12.0882 16.9036 12.4872C16.86 12.6173 16.8456 12.7553 16.8612 12.8916C16.8768 13.0279 16.9221 13.1592 16.994 13.2762L16.998 13.2862C17.3353 14.0528 17.8461 14.7315 18.4904 15.2693C19.1348 15.807 19.8953 16.1893 20.7125 16.3862C20.7641 16.3948 20.8106 16.422 20.8433 16.4626C20.8759 16.5032 20.8923 16.5543 20.8894 16.6062C20.8873 16.6462 20.8781 16.6855 20.8622 16.7222V16.7222Z" fill="white"/>
</svg>
