<svg width="22" height="24" viewBox="0 0 22 24" fill="none" xmlns="http://www.w3.org/2000/svg">
<path d="M21.0566 9.84202C18.9868 9.84696 16.9677 9.20321 15.2846 8.00171V16.3813C15.284 17.9333 14.8083 19.4482 13.9212 20.7233C13.034 21.9984 11.7776 22.973 10.3201 23.5168C8.86249 24.0606 7.27318 24.1477 5.76464 23.7664C4.2561 23.3851 2.90025 22.5536 1.87838 21.383C0.856507 20.2125 0.217324 18.7587 0.0462967 17.2161C-0.12473 15.6735 0.180551 14.1156 0.921321 12.7507C1.66209 11.3858 2.80304 10.279 4.1916 9.57823C5.58017 8.87746 7.15017 8.61616 8.69167 8.82927V13.0439C7.98627 12.8227 7.22881 12.8293 6.52744 13.063C5.82608 13.2966 5.21668 13.7453 4.78627 14.345C4.35586 14.9446 4.12645 15.6646 4.1308 16.402C4.13516 17.1395 4.37305 17.8567 4.81052 18.4512C5.24798 19.0458 5.86264 19.4873 6.56672 19.7127C7.27079 19.9381 8.02828 19.9359 8.73101 19.7063C9.43374 19.4768 10.0458 19.0316 10.4797 18.4345C10.9136 17.8374 11.1473 17.1188 11.1473 16.3813V0H15.2846C15.2817 0.348435 15.311 0.696395 15.372 1.03948C15.5158 1.80537 15.8147 2.53396 16.2505 3.18068C16.6863 3.8274 17.2498 4.37867 17.9066 4.80075C18.841 5.41688 19.9364 5.74528 21.0566 5.74505V9.84202Z" fill="white"/>
</svg>
