<svg width="32" height="24" viewBox="0 0 32 24" fill="none" xmlns="http://www.w3.org/2000/svg">
<path d="M9.76941 23.9997C12.1541 24.0139 14.518 23.5778 16.724 22.7166C18.9301 21.8553 20.9344 20.5862 22.6206 18.9826C24.3069 17.3791 25.6415 15.4732 26.5472 13.3754C27.4528 11.2776 27.9115 9.02962 27.8965 6.76195V5.96988C29.1326 5.10865 30.2025 4.05033 31.0588 2.84185C29.8948 3.32595 28.6632 3.64701 27.4024 3.79503C28.7392 3.03756 29.7422 1.84527 30.2259 0.438774C28.98 1.14955 27.6139 1.64922 26.1882 1.91552C25.2281 0.942704 23.9576 0.297886 22.5734 0.0808445C21.1891 -0.136197 19.7682 0.0866355 18.5305 0.714865C17.2928 1.34309 16.3073 2.3417 15.7265 3.55616C15.1457 4.77063 15.002 6.13326 15.3176 7.4332C12.785 7.31499 10.3069 6.69083 8.04474 5.60137C5.78259 4.51191 3.78711 2.98158 2.18824 1.11002C1.38201 2.44068 1.13764 4.01295 1.5046 5.50849C1.87157 7.00403 2.82244 8.31109 4.16471 9.16503C3.17451 9.12871 2.20723 8.87116 1.34118 8.41323V8.48035C1.33238 9.87096 1.82502 11.2224 2.73699 12.3095C3.64897 13.3966 4.92518 14.1537 6.35294 14.4545C5.43196 14.69 4.46724 14.7267 3.52941 14.5619C3.94276 15.7478 4.73179 16.7831 5.7883 17.5258C6.84481 18.2685 8.11707 18.6822 9.43059 18.7102C7.18477 20.4293 4.39354 21.3756 1.51059 21.3952C1.00511 21.3813 0.500819 21.341 0 21.2744C2.91805 23.0423 6.30946 23.9744 9.76941 23.9594" fill="white"/>
</svg>
