<svg width="37" height="24" viewBox="0 0 37 24" fill="none" xmlns="http://www.w3.org/2000/svg">
<path d="M35.3943 3.7656C35.1896 3.0389 34.7909 2.38098 34.2406 1.86178C33.6747 1.32662 32.9811 0.943806 32.2253 0.749473C29.3968 0.00743355 18.0646 0.00743372 18.0646 0.00743372C13.3403 -0.0460641 8.61723 0.189233 3.92194 0.711996C3.16615 0.920686 2.47388 1.31205 1.90673 1.85129C1.34946 2.38496 0.945809 3.04305 0.73495 3.7641C0.228424 6.48003 -0.0176809 9.23772 -4.69977e-05 12C-0.0181207 14.7598 0.22738 17.5166 0.73495 20.2359C0.941291 20.9539 1.34343 21.609 1.90221 22.1382C2.46099 22.6674 3.15682 23.0496 3.92194 23.252C6.78813 23.9925 18.0646 23.9925 18.0646 23.9925C22.7949 24.0461 27.524 23.8108 32.2253 23.288C32.9811 23.0937 33.6747 22.7108 34.2406 22.1757C34.7907 21.6566 35.1889 20.9986 35.3928 20.2719C35.9125 17.557 36.1652 14.7981 36.1473 12.0345C36.1864 9.2591 35.934 6.48726 35.3943 3.7641V3.7656ZM14.4619 17.1328V6.86868L23.8904 12.0015L14.4619 17.1328Z" fill="white"/>
</svg>
