<svg width="17" height="13" viewBox="0 0 17 13" fill="none" xmlns="http://www.w3.org/2000/svg">
<path d="M5.86009 13C5.72297 12.9996 5.58741 12.971 5.46183 12.9159C5.33624 12.8609 5.22333 12.7806 5.13009 12.68L0.270086 7.51003C0.0884125 7.31642 -0.00890928 7.05858 -0.000470147 6.79321C0.00796899 6.52785 0.121478 6.27671 0.315086 6.09503C0.508694 5.91336 0.766542 5.81604 1.03191 5.82448C1.29727 5.83292 1.54841 5.94642 1.73009 6.14003L5.85009 10.53L14.2601 1.33003C14.3454 1.22375 14.4516 1.13605 14.5721 1.0723C14.6926 1.00854 14.8248 0.970096 14.9607 0.959312C15.0966 0.948527 15.2332 0.965635 15.3622 1.00958C15.4912 1.05353 15.6099 1.12339 15.711 1.21488C15.812 1.30636 15.8933 1.41754 15.9498 1.54158C16.0063 1.66561 16.0369 1.79989 16.0396 1.93617C16.0423 2.07245 16.0172 2.20784 15.9657 2.33404C15.9141 2.46024 15.8374 2.57458 15.7401 2.67003L6.60009 12.67C6.50773 12.7724 6.3952 12.8545 6.26958 12.9113C6.14395 12.9681 6.00794 12.9983 5.87009 13H5.86009Z" fill="black"/>
</svg>
