<svg width="31" height="19" viewBox="0 0 31 19" fill="none" xmlns="http://www.w3.org/2000/svg">
<path d="M1.62617 17.5739C2.04911 17.9967 2.62268 18.2342 3.22072 18.2342C3.81877 18.2342 4.39233 17.9967 4.81528 17.5739L15.9794 6.40972L27.1436 17.5739C27.569 17.9847 28.1387 18.212 28.73 18.2069C29.3214 18.2018 29.8871 17.9646 30.3052 17.5464C30.7234 17.1282 30.9606 16.5626 30.9657 15.9712C30.9709 15.3798 30.7435 14.8101 30.3327 14.3848L17.574 1.62604C17.151 1.20322 16.5775 0.965698 15.9794 0.965698C15.3814 0.965698 14.8078 1.20322 14.3849 1.62604L1.62617 14.3848C1.20335 14.8077 0.96582 15.3813 0.96582 15.9793C0.96582 16.5774 1.20335 17.1509 1.62617 17.5739V17.5739Z" fill="white"/>
</svg>
